<svg width="24" height="24" viewBox="0 0 24 24" fill="none" xmlns="http://www.w3.org/2000/svg">
<path d="M9.43248 4.25722C9.13202 3.4979 8.40452 3 7.59551 3H4.87435C3.83917 3 3 3.8481 3 4.89453C3 13.7892 10.1332 21 18.9321 21C19.9673 21 20.8063 20.1516 20.8063 19.1052L20.8067 16.354C20.8067 15.5362 20.3143 14.8009 19.5632 14.4971L16.9551 13.4429C16.2804 13.1701 15.5122 13.2929 14.9539 13.7632L14.2808 14.3307C13.4947 14.9929 12.338 14.9402 11.6145 14.2088L9.71913 12.2911C8.99556 11.5596 8.94209 10.3913 9.59718 9.59669L10.1585 8.9163C10.6237 8.35196 10.7462 7.57516 10.4763 6.89309L9.43248 4.25722Z" stroke="#141218" stroke-width="1.5" stroke-linecap="round" stroke-linejoin="round"/>
</svg>
