<svg width="24" height="24" viewBox="0 0 24 24" fill="none" xmlns="http://www.w3.org/2000/svg">
<path d="M4.50001 9.7511L4.50001 9.75089C4.50235 7.76225 5.29338 5.85573 6.69956 4.44955C8.10553 3.04358 10.0117 2.25258 12 2.25C13.9883 2.25258 15.8945 3.04358 17.3005 4.44955C18.7066 5.85573 19.4977 7.76225 19.5 9.75089V9.75108C19.5023 11.3735 18.9724 12.952 17.9914 14.2443L17.9164 14.3431L17.9161 14.3438L17.8762 14.3958C17.8462 14.435 17.8156 14.4746 17.7908 14.5066C17.7668 14.5377 17.7549 14.5527 17.7525 14.5558L12 21.3403L6.2458 14.554L6.24582 14.5539L6.24257 14.5502C6.24525 14.5533 6.24469 14.5526 6.23986 14.5465C6.2348 14.5401 6.22508 14.5277 6.2095 14.5077C6.18481 14.4759 6.15445 14.4365 6.12443 14.3973L6.04433 14.2924L6.01872 14.2588L6.01167 14.2495L6.00985 14.2471L6.00941 14.2465L6.00938 14.2465C6.00934 14.2465 6.00931 14.2464 6.00928 14.2464C5.02783 12.9535 4.49763 11.3743 4.50001 9.7511Z" stroke="#141218" stroke-width="1.5"/>
<path d="M14.5 9.75C14.5 11.1307 13.3807 12.25 12 12.25C10.6193 12.25 9.5 11.1307 9.5 9.75C9.5 8.36929 10.6193 7.25 12 7.25C13.3807 7.25 14.5 8.36929 14.5 9.75Z" fill="#141218" stroke="black"/>
</svg>
