<svg width="24" height="24" viewBox="0 0 24 24" fill="none" xmlns="http://www.w3.org/2000/svg">
<path d="M5.00008 13L19.0003 13L20 13L19.9997 14L18.4998 17C18.194 17.6879 17.7201 18.1316 17.4785 18.3838C17.2649 18.6067 17.003 18.777 16.7125 18.8816C16.384 19 16.0073 19 15.2545 19L8.74705 19C7.99431 19 7.61727 19 7.28869 18.8816C6.99824 18.777 6.73666 18.6067 6.52308 18.3838C6.28163 18.1318 5.80505 17.6869 5.49976 17C5.19446 16.3131 3.99976 14 3.99976 14L4.00007 13L5.00008 13Z" stroke="#141218" stroke-linecap="round" stroke-linejoin="round"/>
<path d="M5 8C5 6.34315 6.11929 5 7.5 5C8.88071 5 10 6.34315 10 8" stroke="#141218" stroke-linecap="round" stroke-linejoin="round"/>
<path d="M5 13L5 8" stroke="#141218" stroke-linecap="round"/>
<path d="M8 20L8 19" stroke="#141218" stroke-linecap="round"/>
<path d="M16 20L16 19" stroke="#141218" stroke-linecap="round"/>
</svg>
