<svg width="24" height="24" viewBox="0 0 24 24" fill="none" xmlns="http://www.w3.org/2000/svg">
<path d="M3 18L3 17" stroke="#141218" stroke-linecap="round"/>
<path d="M20 18L20 17" stroke="#141218" stroke-linecap="round"/>
<path d="M1 12.6001V15.4001C1 15.9602 1.00032 16.5 1.00029 17H5.19598H17.8041H22V15.4018V12.5985C22 12.0395 22 11.7596 21.7142 11.5459C21.4625 11.3577 21.0599 11.2049 20.566 11.109C20.0044 11 19.2704 11 17.8003 11H15.1342H7.86499H5.20026C3.73012 11 2.9945 11 2.43298 11.109C1.93906 11.2049 1.53778 11.3577 1.28611 11.5459C1 11.7598 1 12.04 1 12.6001Z" stroke="#141218" stroke-linecap="round" stroke-linejoin="round"/>
<path d="M3 7.33341V9.66675L3.00024 11H6.39675H16.6033H20V9.66816V7.33204C20 6.86625 20 6.633 19.7686 6.45492C19.5649 6.29811 19.2389 6.17072 18.8391 6.09083C18.3845 6 17.7903 6 16.6002 6H14.442H8.55737H6.40021C5.2101 6 4.6146 6 4.16003 6.09083C3.76019 6.17072 3.43534 6.29811 3.23161 6.45492C3 6.63318 3 6.8667 3 7.33341Z" stroke="#141218" stroke-linecap="round" stroke-linejoin="round"/>
<path d="M5.8457 9.06929V10.2001L5.84577 10.8462H6.81401H9.72356H10.6919V10.2007V9.06862C10.6919 8.84289 10.6919 8.72986 10.6259 8.64355C10.5678 8.56757 10.4749 8.50583 10.3609 8.46711C10.2313 8.4231 10.0619 8.4231 9.72268 8.4231H9.10745H7.42993H6.81499C6.47573 8.4231 6.30597 8.4231 6.17639 8.46711C6.06241 8.50583 5.96981 8.56757 5.91173 8.64355C5.8457 8.72994 5.8457 8.84311 5.8457 9.06929Z" stroke="#141218" stroke-linecap="round" stroke-linejoin="round"/>
<path d="M12.3076 9.06929V10.2001L12.3077 10.8462H13.2759H16.1855H17.1538V10.2007V9.06862C17.1538 8.84289 17.1538 8.72986 17.0878 8.64355C17.0297 8.56757 16.9368 8.50583 16.8228 8.46711C16.6933 8.4231 16.5239 8.4231 16.1846 8.4231H15.5694H13.8918H13.2769C12.9376 8.4231 12.7679 8.4231 12.6383 8.46711C12.5243 8.50583 12.4317 8.56757 12.3736 8.64355C12.3076 8.72994 12.3076 8.84311 12.3076 9.06929Z" stroke="#141218" stroke-linecap="round" stroke-linejoin="round"/>
</svg>
