<svg width="25" height="24" viewBox="0 0 25 24" fill="none" xmlns="http://www.w3.org/2000/svg">
<path d="M5.50008 13L19.5003 13L20.5 13L20.4997 14L18.9998 17C18.694 17.6879 18.2201 18.1316 17.9785 18.3838C17.7649 18.6067 17.503 18.777 17.2125 18.8816C16.884 19 16.5073 19 15.7545 19L9.24705 19C8.49431 19 8.11727 19 7.78869 18.8816C7.49824 18.777 7.23666 18.6067 7.02308 18.3838C6.78163 18.1318 6.30505 17.6869 5.99976 17C5.69446 16.3131 4.49976 14 4.49976 14L4.50007 13L5.50008 13Z" stroke="#141218" stroke-linecap="round" stroke-linejoin="round"/>
<path d="M5.5 8C5.5 6.34315 6.61929 5 8 5C9.38071 5 10.5 6.34315 10.5 8" stroke="#141218" stroke-linecap="round" stroke-linejoin="round"/>
<path d="M5.5 13L5.5 8" stroke="#141218" stroke-linecap="round"/>
<path d="M8.5 20L8.5 19" stroke="#141218" stroke-linecap="round"/>
<path d="M16.5 20L16.5 19" stroke="#141218" stroke-linecap="round"/>
</svg>
