<svg width="100" height="100" viewBox="0 0 100 100" fill="none" xmlns="http://www.w3.org/2000/svg">
<path d="M5.22168 17V17C5.22168 15.142 5.22168 14.213 5.3448 13.4357C6.02251 9.15673 9.37841 5.80083 13.6573 5.12312C14.4347 5 15.3637 5 17.2217 5L77.2217 5C79.0797 5 80.0087 5 80.786 5.12312C85.0649 5.80083 88.4208 9.15673 89.0986 13.4357C89.2217 14.213 89.2217 15.142 89.2217 17V17C89.2217 18.858 89.2217 19.787 89.0986 20.5643C88.4208 24.8433 85.0649 28.1992 80.786 28.8769C80.0087 29 79.0797 29 77.2217 29H68.2217M5.22168 17V17C5.22168 18.858 5.22168 19.787 5.3448 20.5643C6.02251 24.8433 9.37841 28.1992 13.6573 28.8769C14.4347 29 15.3637 29 17.2217 29L75.2217 29C84.6498 29 89.3638 29 92.2927 31.9289C95.2217 34.8579 95.2217 39.5719 95.2217 49L95.2217 53M5.22168 17L5.22168 75C5.22168 84.4281 5.22168 89.1421 8.15061 92.0711C11.0795 95 15.7936 95 25.2217 95L77.2217 95C84.7211 95 88.4709 95 91.0995 93.0902C91.9485 92.4734 92.6951 91.7268 93.3118 90.8779C95.2217 88.2492 95.2217 84.4995 95.2217 77V77M95.2217 77H83.2217C81.3637 77 80.4347 77 79.6573 76.8769C75.3784 76.1992 72.0225 72.8433 71.3448 68.5643C71.2217 67.787 71.2217 66.858 71.2217 65V65C71.2217 63.142 71.2217 62.213 71.3448 61.4357C72.0225 57.1567 75.3784 53.8008 79.6573 53.1231C80.4347 53 81.3637 53 83.2217 53H95.2217M95.2217 77V53" stroke="#088FE1" stroke-width="4"/>
</svg>
