<svg width="100" height="100" viewBox="0 0 100 100" fill="none" xmlns="http://www.w3.org/2000/svg">
<path d="M49.6028 1.75005L49.6057 1.75005C60.6812 1.74688 71.4151 5.5843 79.9782 12.6084C88.5414 19.6325 94.404 29.4086 96.567 40.2708C98.73 51.133 97.0595 62.4091 91.8402 72.1777C86.6209 81.9463 78.1758 89.6028 67.9439 93.8425C57.712 98.0822 46.3266 98.6428 35.7278 95.4287C25.1289 92.2146 15.9725 85.4248 9.81886 76.2161C3.66519 67.0075 0.895067 55.95 1.98053 44.9279C3.06599 33.9057 7.93987 23.601 15.7716 15.7697L15.7737 15.7676C20.2101 11.3165 25.4828 7.78651 31.2885 5.38082C37.0942 2.97514 43.3184 1.74121 49.6028 1.75005ZM78.2299 20.9829C71.6143 14.3443 62.9012 10.2054 53.5758 9.2717L88.2931 49.6032L90.0431 49.6073C90.0431 49.6064 90.0431 49.6055 90.0431 49.6046C90.0552 44.291 89.0179 39.0274 86.9907 34.1157C84.9634 29.204 81.9862 24.741 78.2299 20.9829Z" fill="#088FE1" stroke="white" stroke-width="3.5"/>
<path d="M41.32 54.6154L46.0964 51.8876C46.0473 51.2992 46.0999 50.7067 46.2519 50.1363C46.6119 48.8122 47.4776 47.6844 48.6609 46.9981C49.8441 46.3117 51.2493 46.1223 52.5708 46.471C53.1621 46.6347 53.721 46.8989 54.2234 47.2523L58.4619 44.8109L38.4619 30L41.32 54.6154Z" fill="#088FE1"/>
<path d="M55.8052 50.9485L55.8063 50.9444C55.8571 50.7547 55.8989 50.5628 55.9314 50.3693L58.4177 48.9477L60.7321 68.8163L44.5892 56.8617L47.3372 55.2884C47.5409 55.3667 47.7485 55.4347 47.9592 55.4922L47.9592 55.4922L47.9689 55.4948C49.6092 55.9282 51.3531 55.6926 52.8209 54.8401C54.2883 53.9878 55.3599 52.5886 55.8052 50.9485Z" fill="white" stroke="#088FE1" stroke-width="2.5"/>
</svg>
