<svg width="24" height="24" viewBox="0 0 24 24" fill="none" xmlns="http://www.w3.org/2000/svg">
<g clip-path="url(#clip0_272_908)">
<path d="M1.29543 4.28571L9.20745 10.2158L9.21008 10.2179C10.0886 10.8574 10.5281 11.1773 11.0095 11.3008C11.4351 11.4101 11.8823 11.4101 12.3079 11.3008C12.7897 11.1772 13.2305 10.8563 14.1106 10.2158C14.1106 10.2158 19.1854 6.35049 22.0223 4.28571M0 16.886V7.11454C0 5.6744 0 4.9538 0.282387 4.40374C0.530781 3.91989 0.926845 3.5268 1.41435 3.28027C1.96856 3 2.69461 3 4.14563 3H19.1726C20.6236 3 21.3481 3 21.9024 3.28027C22.3899 3.5268 22.7872 3.91989 23.0356 4.40374C23.3177 4.95326 23.3177 5.67299 23.3177 7.11031V16.8903C23.3177 18.3276 23.3177 19.0463 23.0356 19.5958C22.7872 20.0797 22.3899 20.4735 21.9024 20.72C21.3487 21 20.6245 21 19.1764 21H4.14137C2.69319 21 1.96802 21 1.41435 20.72C0.926845 20.4735 0.530781 20.0797 0.282387 19.5958C0 19.0458 0 18.3261 0 16.886Z" stroke="#141218" stroke-width="1.5" stroke-linecap="round" stroke-linejoin="round"/>
</g>
<defs>
<clipPath id="clip0_272_908">
<rect width="24" height="24" fill="white"/>
</clipPath>
</defs>
</svg>
